# xmcd
#
# Track frame offsets:
#	150
#	13858
#	28589
#	43754
#	65100
#	88644
#	104423
#	119967
#	135158
#	150817
#	164363
#	178289
#	193295
#	217441
#	231527
#	250028
#	265933
#	283760
#	298752
#	324417
#
# Disc length: 4468 seconds
#
# Revision: 1
# Processed by: cddbd v1.5.1PL0 Copyright (c) Steve Scherf et al.
# Submitted via: audiograbber 1.83.01
#
DISCID=3c117214
DTITLE=Various Artist - God, Family, Country
DYEAR=2004
DGENRE=Country
TTITLE0=Aaron Tippon - You've Got To Stand For Something
TTITLE1=Lee Greenwood - God Bless The USA
TTITLE2=Michael Martin Murphey - A Long Line Of Love
TTITLE3=Raybon Bros - Butterfly Kisses
TTITLE4=Vince Gill - Go Rest High On That Mountain
TTITLE5=Jeff Carson - I Can Only Imagine
TTITLE6=Randy Travis - He Walked On Water
TTITLE7=Joe Diffie - Home
TTITLE8=Holly Dunn - Daddy's Hands
TTITLE9=Loretta Lynn - Coal Miner's Daughter
TTITLE10=Dolly Parton - Coat Of Many Colors
TTITLE11=Alabama - Down Home
TTITLE12=The Judds - Love Can Build A Bridge
TTITLE13=George Strait - Love Without End, Amen
TTITLE14=Billy Ray Cyrus - Some Gave All
TTITLE15=Johnny Cash - Song Of The Patriot
TTITLE16=Chris Ledoux - I Believe In America
TTITLE17=Charlie Daniels - In America
TTITLE18=Willie Nelson - Amazing Grace
TTITLE19=George Jones - Will The Circle Be Unbroken
EXTD=
EXTT0=
EXTT1=
EXTT2=
EXTT3=
EXTT4=
EXTT5=
EXTT6=
EXTT7=
EXTT8=
EXTT9=
EXTT10=
EXTT11=
EXTT12=
EXTT13=
EXTT14=
EXTT15=
EXTT16=
EXTT17=
EXTT18=
EXTT19=
PLAYORDER=
